<mxfile host="app.diagrams.net" modified="2023-02-07T02:36:51.890Z" agent="5.0 (Windows NT 10.0; Win64; x64) AppleWebKit/537.36 (KHTML, like Gecko) Chrome/109.0.0.0 Safari/537.36" etag="Wxkc46mItLY5iJmSBLKx" version="20.8.17" type="github" pages="3">
  <diagram name="Flow" id="a38ig548DGWVUYfqITZl">
    <mxGraphModel dx="1415" dy="699" grid="1" gridSize="10" guides="1" tooltips="1" connect="1" arrows="1" fold="1" page="1" pageScale="1" pageWidth="1169" pageHeight="827" math="0" shadow="0">
      <root>
        <mxCell id="0" />
        <mxCell id="1" parent="0" />
        <mxCell id="cVHH7BkLImh6WCXltpSg-1" value="DB" style="shape=cylinder3;whiteSpace=wrap;html=1;boundedLbl=1;backgroundOutline=1;size=15;" vertex="1" parent="1">
          <mxGeometry x="846" y="160" width="60" height="80" as="geometry" />
        </mxCell>
        <mxCell id="cVHH7BkLImh6WCXltpSg-2" value="DAO" style="whiteSpace=wrap;html=1;aspect=fixed;" vertex="1" parent="1">
          <mxGeometry x="706" y="160" width="80" height="80" as="geometry" />
        </mxCell>
        <mxCell id="cVHH7BkLImh6WCXltpSg-3" value="Service" style="whiteSpace=wrap;html=1;aspect=fixed;" vertex="1" parent="1">
          <mxGeometry x="566" y="160" width="80" height="80" as="geometry" />
        </mxCell>
        <mxCell id="cVHH7BkLImh6WCXltpSg-5" value="JSP" style="whiteSpace=wrap;html=1;aspect=fixed;" vertex="1" parent="1">
          <mxGeometry x="136" y="340" width="80" height="80" as="geometry" />
        </mxCell>
        <mxCell id="cVHH7BkLImh6WCXltpSg-6" value="Dispatcher Servlet(D.S.)" style="whiteSpace=wrap;html=1;aspect=fixed;" vertex="1" parent="1">
          <mxGeometry x="240" y="160" width="80" height="80" as="geometry" />
        </mxCell>
        <mxCell id="cVHH7BkLImh6WCXltpSg-7" value="IRV(Internal Resource View Resolver)" style="whiteSpace=wrap;html=1;aspect=fixed;" vertex="1" parent="1">
          <mxGeometry x="301" y="340" width="80" height="80" as="geometry" />
        </mxCell>
        <mxCell id="cVHH7BkLImh6WCXltpSg-8" value="" style="endArrow=classic;html=1;rounded=0;startArrow=none;" edge="1" parent="1" source="cVHH7BkLImh6WCXltpSg-4">
          <mxGeometry width="50" height="50" relative="1" as="geometry">
            <mxPoint x="446" y="250" as="sourcePoint" />
            <mxPoint x="486" y="200" as="targetPoint" />
          </mxGeometry>
        </mxCell>
        <mxCell id="cVHH7BkLImh6WCXltpSg-14" value="" style="endArrow=classic;html=1;rounded=0;exitX=0;exitY=0;exitDx=0;exitDy=52.5;exitPerimeter=0;entryX=1.038;entryY=0.663;entryDx=0;entryDy=0;entryPerimeter=0;" edge="1" parent="1" source="cVHH7BkLImh6WCXltpSg-1" target="cVHH7BkLImh6WCXltpSg-2">
          <mxGeometry relative="1" as="geometry">
            <mxPoint x="666" y="350" as="sourcePoint" />
            <mxPoint x="766" y="350" as="targetPoint" />
          </mxGeometry>
        </mxCell>
        <mxCell id="cVHH7BkLImh6WCXltpSg-15" value="" style="shape=message;html=1;outlineConnect=0;" vertex="1" parent="cVHH7BkLImh6WCXltpSg-14">
          <mxGeometry width="20" height="14" relative="1" as="geometry">
            <mxPoint x="-10" y="-7" as="offset" />
          </mxGeometry>
        </mxCell>
        <mxCell id="cVHH7BkLImh6WCXltpSg-4" value="Controller" style="whiteSpace=wrap;html=1;aspect=fixed;" vertex="1" parent="1">
          <mxGeometry x="420" y="160" width="80" height="80" as="geometry" />
        </mxCell>
        <mxCell id="cVHH7BkLImh6WCXltpSg-19" value="" style="endArrow=classic;html=1;rounded=0;entryX=0;entryY=0.5;entryDx=0;entryDy=0;" edge="1" parent="1" source="cVHH7BkLImh6WCXltpSg-6" target="cVHH7BkLImh6WCXltpSg-4">
          <mxGeometry width="50" height="50" relative="1" as="geometry">
            <mxPoint x="366" y="250" as="sourcePoint" />
            <mxPoint x="416" y="200" as="targetPoint" />
          </mxGeometry>
        </mxCell>
        <mxCell id="cVHH7BkLImh6WCXltpSg-21" value="" style="endArrow=classic;html=1;rounded=0;entryX=0;entryY=0.5;entryDx=0;entryDy=0;" edge="1" parent="1" source="cVHH7BkLImh6WCXltpSg-4" target="cVHH7BkLImh6WCXltpSg-3">
          <mxGeometry width="50" height="50" relative="1" as="geometry">
            <mxPoint x="500" y="250" as="sourcePoint" />
            <mxPoint x="566" y="200" as="targetPoint" />
          </mxGeometry>
        </mxCell>
        <mxCell id="cVHH7BkLImh6WCXltpSg-22" value="" style="endArrow=classic;html=1;rounded=0;entryX=0;entryY=0.5;entryDx=0;entryDy=0;" edge="1" parent="1" source="cVHH7BkLImh6WCXltpSg-3" target="cVHH7BkLImh6WCXltpSg-2">
          <mxGeometry width="50" height="50" relative="1" as="geometry">
            <mxPoint x="646" y="250" as="sourcePoint" />
            <mxPoint x="706" y="200" as="targetPoint" />
          </mxGeometry>
        </mxCell>
        <mxCell id="cVHH7BkLImh6WCXltpSg-24" value="" style="endArrow=classic;html=1;rounded=0;entryX=0;entryY=0.5;entryDx=0;entryDy=0;entryPerimeter=0;" edge="1" parent="1" source="cVHH7BkLImh6WCXltpSg-2" target="cVHH7BkLImh6WCXltpSg-1">
          <mxGeometry width="50" height="50" relative="1" as="geometry">
            <mxPoint x="786" y="250" as="sourcePoint" />
            <mxPoint x="856.7106781186548" y="200" as="targetPoint" />
          </mxGeometry>
        </mxCell>
        <mxCell id="cVHH7BkLImh6WCXltpSg-25" value="" style="endArrow=classic;html=1;rounded=0;exitX=0;exitY=0.75;exitDx=0;exitDy=0;entryX=1;entryY=0.75;entryDx=0;entryDy=0;" edge="1" parent="1" source="cVHH7BkLImh6WCXltpSg-2" target="cVHH7BkLImh6WCXltpSg-3">
          <mxGeometry relative="1" as="geometry">
            <mxPoint x="656" y="300" as="sourcePoint" />
            <mxPoint x="756" y="300" as="targetPoint" />
          </mxGeometry>
        </mxCell>
        <mxCell id="cVHH7BkLImh6WCXltpSg-26" value="" style="shape=message;html=1;outlineConnect=0;" vertex="1" parent="cVHH7BkLImh6WCXltpSg-25">
          <mxGeometry width="20" height="14" relative="1" as="geometry">
            <mxPoint x="-10" y="-7" as="offset" />
          </mxGeometry>
        </mxCell>
        <mxCell id="cVHH7BkLImh6WCXltpSg-27" value="" style="endArrow=classic;html=1;rounded=0;exitX=0;exitY=0.75;exitDx=0;exitDy=0;entryX=1;entryY=0.75;entryDx=0;entryDy=0;" edge="1" parent="1" source="cVHH7BkLImh6WCXltpSg-3" target="cVHH7BkLImh6WCXltpSg-4">
          <mxGeometry relative="1" as="geometry">
            <mxPoint x="656" y="300" as="sourcePoint" />
            <mxPoint x="756" y="300" as="targetPoint" />
          </mxGeometry>
        </mxCell>
        <mxCell id="cVHH7BkLImh6WCXltpSg-28" value="" style="shape=message;html=1;outlineConnect=0;" vertex="1" parent="cVHH7BkLImh6WCXltpSg-27">
          <mxGeometry width="20" height="14" relative="1" as="geometry">
            <mxPoint x="-10" y="-7" as="offset" />
          </mxGeometry>
        </mxCell>
        <mxCell id="cVHH7BkLImh6WCXltpSg-29" value="" style="endArrow=classic;html=1;rounded=0;exitX=0;exitY=0.75;exitDx=0;exitDy=0;entryX=1;entryY=0.75;entryDx=0;entryDy=0;" edge="1" parent="1" source="cVHH7BkLImh6WCXltpSg-4" target="cVHH7BkLImh6WCXltpSg-6">
          <mxGeometry relative="1" as="geometry">
            <mxPoint x="656" y="300" as="sourcePoint" />
            <mxPoint x="756" y="300" as="targetPoint" />
          </mxGeometry>
        </mxCell>
        <mxCell id="cVHH7BkLImh6WCXltpSg-30" value="" style="shape=message;html=1;outlineConnect=0;" vertex="1" parent="cVHH7BkLImh6WCXltpSg-29">
          <mxGeometry width="20" height="14" relative="1" as="geometry">
            <mxPoint x="-10" y="-7" as="offset" />
          </mxGeometry>
        </mxCell>
        <mxCell id="cVHH7BkLImh6WCXltpSg-32" value="ModelAndView" style="text;html=1;align=center;verticalAlign=middle;resizable=0;points=[];autosize=1;strokeColor=none;fillColor=none;" vertex="1" parent="1">
          <mxGeometry x="321" y="240" width="100" height="30" as="geometry" />
        </mxCell>
        <mxCell id="cVHH7BkLImh6WCXltpSg-33" value="" style="endArrow=classic;html=1;rounded=0;exitX=0.75;exitY=1;exitDx=0;exitDy=0;entryX=0.75;entryY=0;entryDx=0;entryDy=0;startArrow=none;" edge="1" parent="1" source="cVHH7BkLImh6WCXltpSg-34" target="cVHH7BkLImh6WCXltpSg-7">
          <mxGeometry width="50" height="50" relative="1" as="geometry">
            <mxPoint x="686" y="330" as="sourcePoint" />
            <mxPoint x="356" y="340" as="targetPoint" />
          </mxGeometry>
        </mxCell>
        <mxCell id="cVHH7BkLImh6WCXltpSg-35" value="Prefix + ViewName + Suffix" style="text;html=1;align=center;verticalAlign=middle;resizable=0;points=[];autosize=1;strokeColor=none;fillColor=none;" vertex="1" parent="1">
          <mxGeometry x="386" y="365" width="170" height="30" as="geometry" />
        </mxCell>
        <mxCell id="cVHH7BkLImh6WCXltpSg-36" value="" style="endArrow=classic;html=1;rounded=0;exitX=0.5;exitY=0;exitDx=0;exitDy=0;exitPerimeter=0;entryX=0.5;entryY=1;entryDx=0;entryDy=0;" edge="1" parent="1" source="cVHH7BkLImh6WCXltpSg-7" target="cVHH7BkLImh6WCXltpSg-6">
          <mxGeometry width="50" height="50" relative="1" as="geometry">
            <mxPoint x="686" y="330" as="sourcePoint" />
            <mxPoint x="736" y="280" as="targetPoint" />
          </mxGeometry>
        </mxCell>
        <mxCell id="cVHH7BkLImh6WCXltpSg-37" value="" style="endArrow=classic;html=1;rounded=0;exitX=0.35;exitY=1.025;exitDx=0;exitDy=0;entryX=0.863;entryY=-0.025;entryDx=0;entryDy=0;exitPerimeter=0;entryPerimeter=0;startArrow=none;" edge="1" parent="1" source="cVHH7BkLImh6WCXltpSg-38" target="cVHH7BkLImh6WCXltpSg-5">
          <mxGeometry width="50" height="50" relative="1" as="geometry">
            <mxPoint x="686" y="330" as="sourcePoint" />
            <mxPoint x="736" y="280" as="targetPoint" />
          </mxGeometry>
        </mxCell>
        <mxCell id="cVHH7BkLImh6WCXltpSg-39" value="" style="endArrow=none;html=1;rounded=0;exitX=0.75;exitY=1;exitDx=0;exitDy=0;entryX=0.75;entryY=0;entryDx=0;entryDy=0;" edge="1" parent="1" source="cVHH7BkLImh6WCXltpSg-6" target="cVHH7BkLImh6WCXltpSg-34">
          <mxGeometry width="50" height="50" relative="1" as="geometry">
            <mxPoint x="300" y="240" as="sourcePoint" />
            <mxPoint x="361" y="340" as="targetPoint" />
          </mxGeometry>
        </mxCell>
        <mxCell id="cVHH7BkLImh6WCXltpSg-34" value="View" style="text;html=1;align=center;verticalAlign=middle;resizable=0;points=[];autosize=1;strokeColor=none;fillColor=none;" vertex="1" parent="1">
          <mxGeometry x="306" y="280" width="50" height="30" as="geometry" />
        </mxCell>
        <mxCell id="cVHH7BkLImh6WCXltpSg-40" value="" style="endArrow=none;html=1;rounded=0;exitX=0.35;exitY=1.025;exitDx=0;exitDy=0;entryX=0.863;entryY=-0.025;entryDx=0;entryDy=0;exitPerimeter=0;entryPerimeter=0;" edge="1" parent="1" source="cVHH7BkLImh6WCXltpSg-6" target="cVHH7BkLImh6WCXltpSg-38">
          <mxGeometry width="50" height="50" relative="1" as="geometry">
            <mxPoint x="268" y="242" as="sourcePoint" />
            <mxPoint x="205.03999999999996" y="338" as="targetPoint" />
          </mxGeometry>
        </mxCell>
        <mxCell id="cVHH7BkLImh6WCXltpSg-38" value="Model" style="text;html=1;align=center;verticalAlign=middle;resizable=0;points=[];autosize=1;strokeColor=none;fillColor=none;" vertex="1" parent="1">
          <mxGeometry x="196" y="280" width="60" height="30" as="geometry" />
        </mxCell>
        <mxCell id="cVHH7BkLImh6WCXltpSg-42" value="" style="endArrow=classic;html=1;rounded=0;exitX=0.363;exitY=-0.025;exitDx=0;exitDy=0;exitPerimeter=0;entryX=0.138;entryY=1.025;entryDx=0;entryDy=0;entryPerimeter=0;" edge="1" parent="1" source="cVHH7BkLImh6WCXltpSg-5" target="cVHH7BkLImh6WCXltpSg-6">
          <mxGeometry width="50" height="50" relative="1" as="geometry">
            <mxPoint x="146" y="310" as="sourcePoint" />
            <mxPoint x="196" y="260" as="targetPoint" />
          </mxGeometry>
        </mxCell>
        <mxCell id="cVHH7BkLImh6WCXltpSg-43" value="" style="endArrow=classic;html=1;rounded=0;exitX=0;exitY=0.75;exitDx=0;exitDy=0;" edge="1" parent="1" source="cVHH7BkLImh6WCXltpSg-6">
          <mxGeometry width="50" height="50" relative="1" as="geometry">
            <mxPoint x="686" y="330" as="sourcePoint" />
            <mxPoint x="46" y="220" as="targetPoint" />
          </mxGeometry>
        </mxCell>
        <mxCell id="cVHH7BkLImh6WCXltpSg-44" value="" style="endArrow=classic;html=1;rounded=0;entryX=0;entryY=0.25;entryDx=0;entryDy=0;" edge="1" parent="1" target="cVHH7BkLImh6WCXltpSg-6">
          <mxGeometry width="50" height="50" relative="1" as="geometry">
            <mxPoint x="46" y="180" as="sourcePoint" />
            <mxPoint x="646" y="240" as="targetPoint" />
          </mxGeometry>
        </mxCell>
        <mxCell id="cVHH7BkLImh6WCXltpSg-45" value="요청정보&lt;br&gt;URL(ip:port), Method, [Parameter]" style="text;html=1;align=center;verticalAlign=middle;resizable=0;points=[];autosize=1;strokeColor=none;fillColor=none;" vertex="1" parent="1">
          <mxGeometry x="40" y="100" width="200" height="40" as="geometry" />
        </mxCell>
        <mxCell id="cVHH7BkLImh6WCXltpSg-46" value="Request&lt;br&gt;객체" style="ellipse;whiteSpace=wrap;html=1;aspect=fixed;" vertex="1" parent="1">
          <mxGeometry x="76" y="150" width="50" height="50" as="geometry" />
        </mxCell>
        <mxCell id="cVHH7BkLImh6WCXltpSg-47" value="Response&lt;br&gt;객체" style="ellipse;whiteSpace=wrap;html=1;aspect=fixed;" vertex="1" parent="1">
          <mxGeometry x="146" y="150" width="50" height="50" as="geometry" />
        </mxCell>
        <mxCell id="cVHH7BkLImh6WCXltpSg-49" value="Fowarding Redirect" style="text;html=1;align=center;verticalAlign=middle;resizable=0;points=[];autosize=1;strokeColor=none;fillColor=none;" vertex="1" parent="1">
          <mxGeometry x="106" y="40" width="130" height="30" as="geometry" />
        </mxCell>
        <mxCell id="cVHH7BkLImh6WCXltpSg-50" value="응답 또는 Redirect" style="text;html=1;align=center;verticalAlign=middle;resizable=0;points=[];autosize=1;strokeColor=none;fillColor=none;" vertex="1" parent="1">
          <mxGeometry x="80" y="220" width="120" height="30" as="geometry" />
        </mxCell>
      </root>
    </mxGraphModel>
  </diagram>
  <diagram id="5pSsUK6Ihgyl1BSsLuDA" name="Class Diagram - Product">
    <mxGraphModel dx="1415" dy="756" grid="1" gridSize="10" guides="1" tooltips="1" connect="1" arrows="1" fold="1" page="1" pageScale="1" pageWidth="1169" pageHeight="827" math="0" shadow="0">
      <root>
        <mxCell id="0" />
        <mxCell id="1" parent="0" />
        <mxCell id="afDt_r49-M6QYHOoE6Rl-1" value="ProductDAO" style="swimlane;fontStyle=1;align=center;verticalAlign=top;childLayout=stackLayout;horizontal=1;startSize=26;horizontalStack=0;resizeParent=1;resizeParentMax=0;resizeLast=0;collapsible=1;marginBottom=0;" vertex="1" parent="1">
          <mxGeometry x="770" y="140" width="260" height="190" as="geometry" />
        </mxCell>
        <mxCell id="afDt_r49-M6QYHOoE6Rl-2" value="- sqlSession: SqlSession&#xa;- NAMESPACE : String" style="text;strokeColor=none;fillColor=none;align=left;verticalAlign=top;spacingLeft=4;spacingRight=4;overflow=hidden;rotatable=0;points=[[0,0.5],[1,0.5]];portConstraint=eastwest;" vertex="1" parent="afDt_r49-M6QYHOoE6Rl-1">
          <mxGeometry y="26" width="260" height="44" as="geometry" />
        </mxCell>
        <mxCell id="afDt_r49-M6QYHOoE6Rl-3" value="" style="line;strokeWidth=1;fillColor=none;align=left;verticalAlign=middle;spacingTop=-1;spacingLeft=3;spacingRight=3;rotatable=0;labelPosition=right;points=[];portConstraint=eastwest;strokeColor=inherit;" vertex="1" parent="afDt_r49-M6QYHOoE6Rl-1">
          <mxGeometry y="70" width="260" height="10" as="geometry" />
        </mxCell>
        <mxCell id="afDt_r49-M6QYHOoE6Rl-4" value="+ getProductList(): List&lt;ProductDTO&gt;&#xa;+ getProductDetail(ProductDTO): ProductDTO&#xa;+ setProductAdd(ProductDTO): int" style="text;strokeColor=none;fillColor=none;align=left;verticalAlign=top;spacingLeft=4;spacingRight=4;overflow=hidden;rotatable=0;points=[[0,0.5],[1,0.5]];portConstraint=eastwest;" vertex="1" parent="afDt_r49-M6QYHOoE6Rl-1">
          <mxGeometry y="80" width="260" height="110" as="geometry" />
        </mxCell>
        <mxCell id="afDt_r49-M6QYHOoE6Rl-5" value="&lt;font style=&quot;font-size: 24px;&quot;&gt;Class Diagram&lt;/font&gt;" style="text;html=1;align=center;verticalAlign=middle;resizable=0;points=[];autosize=1;strokeColor=none;fillColor=none;" vertex="1" parent="1">
          <mxGeometry x="40" y="40" width="180" height="40" as="geometry" />
        </mxCell>
        <mxCell id="afDt_r49-M6QYHOoE6Rl-6" value="&lt;font style=&quot;font-size: 12px;&quot;&gt;Product&lt;br&gt;&lt;/font&gt;" style="text;html=1;align=center;verticalAlign=middle;resizable=0;points=[];autosize=1;strokeColor=none;fillColor=none;fontSize=24;" vertex="1" parent="1">
          <mxGeometry x="40" y="90" width="60" height="40" as="geometry" />
        </mxCell>
        <mxCell id="afDt_r49-M6QYHOoE6Rl-8" value="ProductService" style="swimlane;fontStyle=1;align=center;verticalAlign=top;childLayout=stackLayout;horizontal=1;startSize=26;horizontalStack=0;resizeParent=1;resizeParentMax=0;resizeLast=0;collapsible=1;marginBottom=0;fontSize=12;" vertex="1" parent="1">
          <mxGeometry x="370" y="140" width="340" height="200" as="geometry" />
        </mxCell>
        <mxCell id="afDt_r49-M6QYHOoE6Rl-9" value="- ProductDAO: ProductDAO" style="text;strokeColor=none;fillColor=none;align=left;verticalAlign=top;spacingLeft=4;spacingRight=4;overflow=hidden;rotatable=0;points=[[0,0.5],[1,0.5]];portConstraint=eastwest;fontSize=12;" vertex="1" parent="afDt_r49-M6QYHOoE6Rl-8">
          <mxGeometry y="26" width="340" height="26" as="geometry" />
        </mxCell>
        <mxCell id="afDt_r49-M6QYHOoE6Rl-10" value="" style="line;strokeWidth=1;fillColor=none;align=left;verticalAlign=middle;spacingTop=-1;spacingLeft=3;spacingRight=3;rotatable=0;labelPosition=right;points=[];portConstraint=eastwest;strokeColor=inherit;fontSize=12;" vertex="1" parent="afDt_r49-M6QYHOoE6Rl-8">
          <mxGeometry y="52" width="340" height="8" as="geometry" />
        </mxCell>
        <mxCell id="afDt_r49-M6QYHOoE6Rl-11" value="+ getProductList(): List&lt;ProductDTO&gt;&#xa;+ getProductDetail(ProductDTO): ProductDTO&#xa;+ setProductAdd(ProductDTO, List&lt;ProductOptionDTO&gt;): int" style="text;strokeColor=none;fillColor=none;align=left;verticalAlign=top;spacingLeft=4;spacingRight=4;overflow=hidden;rotatable=0;points=[[0,0.5],[1,0.5]];portConstraint=eastwest;fontSize=12;" vertex="1" parent="afDt_r49-M6QYHOoE6Rl-8">
          <mxGeometry y="60" width="340" height="140" as="geometry" />
        </mxCell>
        <mxCell id="afDt_r49-M6QYHOoE6Rl-12" value="ProductController" style="swimlane;fontStyle=1;align=center;verticalAlign=top;childLayout=stackLayout;horizontal=1;startSize=26;horizontalStack=0;resizeParent=1;resizeParentMax=0;resizeLast=0;collapsible=1;marginBottom=0;fontSize=12;" vertex="1" parent="1">
          <mxGeometry x="40" y="140" width="270" height="200" as="geometry" />
        </mxCell>
        <mxCell id="afDt_r49-M6QYHOoE6Rl-13" value="- ProductService: ProductService" style="text;strokeColor=none;fillColor=none;align=left;verticalAlign=top;spacingLeft=4;spacingRight=4;overflow=hidden;rotatable=0;points=[[0,0.5],[1,0.5]];portConstraint=eastwest;fontSize=12;" vertex="1" parent="afDt_r49-M6QYHOoE6Rl-12">
          <mxGeometry y="26" width="270" height="26" as="geometry" />
        </mxCell>
        <mxCell id="afDt_r49-M6QYHOoE6Rl-14" value="" style="line;strokeWidth=1;fillColor=none;align=left;verticalAlign=middle;spacingTop=-1;spacingLeft=3;spacingRight=3;rotatable=0;labelPosition=right;points=[];portConstraint=eastwest;strokeColor=inherit;fontSize=12;" vertex="1" parent="afDt_r49-M6QYHOoE6Rl-12">
          <mxGeometry y="52" width="270" height="8" as="geometry" />
        </mxCell>
        <mxCell id="afDt_r49-M6QYHOoE6Rl-15" value="+ getProductList(): ModelAndView&#xa;+ getProductDetail(ProductDTO): String&#xa;+ setProductAdd(): Void&#xa;+ setProductAdd(ProductDTO): String" style="text;strokeColor=none;fillColor=none;align=left;verticalAlign=top;spacingLeft=4;spacingRight=4;overflow=hidden;rotatable=0;points=[[0,0.5],[1,0.5]];portConstraint=eastwest;fontSize=12;" vertex="1" parent="afDt_r49-M6QYHOoE6Rl-12">
          <mxGeometry y="60" width="270" height="140" as="geometry" />
        </mxCell>
        <mxCell id="afDt_r49-M6QYHOoE6Rl-16" value="각각 메서드가 하는일들을 블로그나 노션에 적어놓고, 오버로딩된 메서드들이 무슨차이인지도&lt;br&gt;메모를 해두고 보면 좋다." style="text;html=1;align=center;verticalAlign=middle;resizable=0;points=[];autosize=1;strokeColor=none;fillColor=none;fontSize=12;" vertex="1" parent="1">
          <mxGeometry x="310" y="30" width="520" height="40" as="geometry" />
        </mxCell>
        <mxCell id="afDt_r49-M6QYHOoE6Rl-17" value="" style="edgeStyle=orthogonalEdgeStyle;rounded=0;orthogonalLoop=1;jettySize=auto;html=1;fontSize=12;" edge="1" parent="1" source="afDt_r49-M6QYHOoE6Rl-15" target="afDt_r49-M6QYHOoE6Rl-11">
          <mxGeometry relative="1" as="geometry" />
        </mxCell>
        <mxCell id="afDt_r49-M6QYHOoE6Rl-20" value="ProductControll는&lt;br&gt;ProductService를 참조하겠다&lt;br&gt;= 즉, 필요하다. 의존적이다" style="text;html=1;align=center;verticalAlign=middle;resizable=0;points=[];autosize=1;strokeColor=none;fillColor=none;fontSize=12;" vertex="1" parent="1">
          <mxGeometry x="250" y="340" width="180" height="60" as="geometry" />
        </mxCell>
        <mxCell id="afDt_r49-M6QYHOoE6Rl-21" value="ProductService는&lt;br&gt;ProductDAO를 참조하겠다.&lt;br&gt;= 즉, 필요하다. 의존적이다" style="text;html=1;align=center;verticalAlign=middle;resizable=0;points=[];autosize=1;strokeColor=none;fillColor=none;fontSize=12;" vertex="1" parent="1">
          <mxGeometry x="660" y="339" width="170" height="60" as="geometry" />
        </mxCell>
        <mxCell id="afDt_r49-M6QYHOoE6Rl-37" value="" style="edgeStyle=orthogonalEdgeStyle;rounded=0;orthogonalLoop=1;jettySize=auto;html=1;fontSize=12;" edge="1" parent="1" source="afDt_r49-M6QYHOoE6Rl-11" target="afDt_r49-M6QYHOoE6Rl-4">
          <mxGeometry relative="1" as="geometry" />
        </mxCell>
      </root>
    </mxGraphModel>
  </diagram>
  <diagram id="G9jywz4MMIdzYjSdXpmn" name="Class Diagram - Member">
    <mxGraphModel dx="1415" dy="756" grid="1" gridSize="10" guides="1" tooltips="1" connect="1" arrows="1" fold="1" page="1" pageScale="1" pageWidth="1169" pageHeight="827" math="0" shadow="0">
      <root>
        <mxCell id="0" />
        <mxCell id="1" parent="0" />
        <mxCell id="8meTgkc3xByESBasRRkq-5" value="&lt;font style=&quot;font-size: 24px;&quot;&gt;Class Diagram&lt;/font&gt;" style="text;html=1;align=center;verticalAlign=middle;resizable=0;points=[];autosize=1;strokeColor=none;fillColor=none;" vertex="1" parent="1">
          <mxGeometry x="40" y="40" width="180" height="40" as="geometry" />
        </mxCell>
        <mxCell id="8meTgkc3xByESBasRRkq-15" value="각각 메서드가 하는일들을 블로그나 노션에 적어놓고, 오버로딩된 메서드들이 무슨차이인지도&lt;br&gt;메모를 해두고 보면 좋다." style="text;html=1;align=center;verticalAlign=middle;resizable=0;points=[];autosize=1;strokeColor=none;fillColor=none;fontSize=12;" vertex="1" parent="1">
          <mxGeometry x="310" y="30" width="520" height="40" as="geometry" />
        </mxCell>
        <mxCell id="8meTgkc3xByESBasRRkq-19" value="MemberDAO&#xa;" style="swimlane;fontStyle=1;align=center;verticalAlign=top;childLayout=stackLayout;horizontal=1;startSize=26;horizontalStack=0;resizeParent=1;resizeParentMax=0;resizeLast=0;collapsible=1;marginBottom=0;fontSize=12;" vertex="1" parent="1">
          <mxGeometry x="770" y="140" width="260" height="170" as="geometry" />
        </mxCell>
        <mxCell id="8meTgkc3xByESBasRRkq-20" value="- sqlSession: SqlSession&#xa;- NAMESPACE: String" style="text;strokeColor=none;fillColor=none;align=left;verticalAlign=top;spacingLeft=4;spacingRight=4;overflow=hidden;rotatable=0;points=[[0,0.5],[1,0.5]];portConstraint=eastwest;fontSize=12;" vertex="1" parent="8meTgkc3xByESBasRRkq-19">
          <mxGeometry y="26" width="260" height="44" as="geometry" />
        </mxCell>
        <mxCell id="8meTgkc3xByESBasRRkq-21" value="" style="line;strokeWidth=1;fillColor=none;align=left;verticalAlign=middle;spacingTop=-1;spacingLeft=3;spacingRight=3;rotatable=0;labelPosition=right;points=[];portConstraint=eastwest;strokeColor=inherit;fontSize=12;" vertex="1" parent="8meTgkc3xByESBasRRkq-19">
          <mxGeometry y="70" width="260" height="8" as="geometry" />
        </mxCell>
        <mxCell id="8meTgkc3xByESBasRRkq-22" value="+ setMemberAdd(MemberDTO): int" style="text;strokeColor=none;fillColor=none;align=left;verticalAlign=top;spacingLeft=4;spacingRight=4;overflow=hidden;rotatable=0;points=[[0,0.5],[1,0.5]];portConstraint=eastwest;fontSize=12;" vertex="1" parent="8meTgkc3xByESBasRRkq-19">
          <mxGeometry y="78" width="260" height="92" as="geometry" />
        </mxCell>
        <mxCell id="8meTgkc3xByESBasRRkq-23" value="Member" style="text;html=1;align=center;verticalAlign=middle;resizable=0;points=[];autosize=1;strokeColor=none;fillColor=none;fontSize=12;" vertex="1" parent="1">
          <mxGeometry x="30" y="100" width="70" height="30" as="geometry" />
        </mxCell>
        <mxCell id="8meTgkc3xByESBasRRkq-24" value="MemberService" style="swimlane;fontStyle=1;align=center;verticalAlign=top;childLayout=stackLayout;horizontal=1;startSize=26;horizontalStack=0;resizeParent=1;resizeParentMax=0;resizeLast=0;collapsible=1;marginBottom=0;fontSize=12;" vertex="1" parent="1">
          <mxGeometry x="380" y="140" width="330" height="170" as="geometry" />
        </mxCell>
        <mxCell id="8meTgkc3xByESBasRRkq-25" value="- memberDAO: MemberDAO" style="text;strokeColor=none;fillColor=none;align=left;verticalAlign=top;spacingLeft=4;spacingRight=4;overflow=hidden;rotatable=0;points=[[0,0.5],[1,0.5]];portConstraint=eastwest;fontSize=12;" vertex="1" parent="8meTgkc3xByESBasRRkq-24">
          <mxGeometry y="26" width="330" height="26" as="geometry" />
        </mxCell>
        <mxCell id="8meTgkc3xByESBasRRkq-26" value="" style="line;strokeWidth=1;fillColor=none;align=left;verticalAlign=middle;spacingTop=-1;spacingLeft=3;spacingRight=3;rotatable=0;labelPosition=right;points=[];portConstraint=eastwest;strokeColor=inherit;fontSize=12;" vertex="1" parent="8meTgkc3xByESBasRRkq-24">
          <mxGeometry y="52" width="330" height="8" as="geometry" />
        </mxCell>
        <mxCell id="8meTgkc3xByESBasRRkq-27" value="+ setMemberAdd(memberDTO): int" style="text;strokeColor=none;fillColor=none;align=left;verticalAlign=top;spacingLeft=4;spacingRight=4;overflow=hidden;rotatable=0;points=[[0,0.5],[1,0.5]];portConstraint=eastwest;fontSize=12;" vertex="1" parent="8meTgkc3xByESBasRRkq-24">
          <mxGeometry y="60" width="330" height="110" as="geometry" />
        </mxCell>
        <mxCell id="8meTgkc3xByESBasRRkq-28" value="MemberController" style="swimlane;fontStyle=1;align=center;verticalAlign=top;childLayout=stackLayout;horizontal=1;startSize=26;horizontalStack=0;resizeParent=1;resizeParentMax=0;resizeLast=0;collapsible=1;marginBottom=0;fontSize=12;" vertex="1" parent="1">
          <mxGeometry x="40" y="140" width="270" height="170" as="geometry" />
        </mxCell>
        <mxCell id="8meTgkc3xByESBasRRkq-29" value="- memberService: MemberService" style="text;strokeColor=none;fillColor=none;align=left;verticalAlign=top;spacingLeft=4;spacingRight=4;overflow=hidden;rotatable=0;points=[[0,0.5],[1,0.5]];portConstraint=eastwest;fontSize=12;" vertex="1" parent="8meTgkc3xByESBasRRkq-28">
          <mxGeometry y="26" width="270" height="26" as="geometry" />
        </mxCell>
        <mxCell id="8meTgkc3xByESBasRRkq-30" value="" style="line;strokeWidth=1;fillColor=none;align=left;verticalAlign=middle;spacingTop=-1;spacingLeft=3;spacingRight=3;rotatable=0;labelPosition=right;points=[];portConstraint=eastwest;strokeColor=inherit;fontSize=12;" vertex="1" parent="8meTgkc3xByESBasRRkq-28">
          <mxGeometry y="52" width="270" height="8" as="geometry" />
        </mxCell>
        <mxCell id="8meTgkc3xByESBasRRkq-31" value="+ setMemberAdd(): Void&#xa;+ setMemberAdd(MemberDTO): String" style="text;strokeColor=none;fillColor=none;align=left;verticalAlign=top;spacingLeft=4;spacingRight=4;overflow=hidden;rotatable=0;points=[[0,0.5],[1,0.5]];portConstraint=eastwest;fontSize=12;" vertex="1" parent="8meTgkc3xByESBasRRkq-28">
          <mxGeometry y="60" width="270" height="110" as="geometry" />
        </mxCell>
        <mxCell id="8meTgkc3xByESBasRRkq-33" value="" style="edgeStyle=orthogonalEdgeStyle;rounded=0;orthogonalLoop=1;jettySize=auto;html=1;fontSize=12;" edge="1" parent="1" source="8meTgkc3xByESBasRRkq-31" target="8meTgkc3xByESBasRRkq-27">
          <mxGeometry relative="1" as="geometry" />
        </mxCell>
        <mxCell id="8meTgkc3xByESBasRRkq-34" value="" style="edgeStyle=orthogonalEdgeStyle;rounded=0;orthogonalLoop=1;jettySize=auto;html=1;fontSize=12;" edge="1" parent="1" source="8meTgkc3xByESBasRRkq-27" target="8meTgkc3xByESBasRRkq-22">
          <mxGeometry relative="1" as="geometry" />
        </mxCell>
      </root>
    </mxGraphModel>
  </diagram>
</mxfile>
